<svg width="500" height="500" viewBox="0 0 500 500" fill="none" xmlns="http://www.w3.org/2000/svg">
<rect x="472.275" y="457.18" width="19.2251" height="27.4644" rx="9.61254" fill="#6667AB"/>
<rect x="439.318" y="402.251" width="19.2251" height="82.3932" rx="9.61254" fill="#6667AB"/>
<rect x="406.36" y="443.447" width="19.2251" height="41.1966" rx="9.61254" fill="#6667AB"/>
<rect x="372.03" y="415.983" width="19.2251" height="68.661" rx="9.61254" fill="#6667AB"/>
<rect x="340.446" y="429.715" width="19.2251" height="54.9288" rx="9.61254" fill="#6667AB"/>
<rect x="307.489" y="388.518" width="19.2251" height="96.1253" rx="9.61254" fill="#6667AB"/>
<rect x="274.531" y="443.447" width="19.2251" height="41.1966" rx="9.61254" fill="#6667AB"/>
<rect x="240.201" y="210" width="19.2251" height="274.644" rx="9.61254" fill="#6667AB"/>
<rect x="207.244" y="443.447" width="19.2251" height="41.1966" rx="9.61254" fill="#6667AB"/>
<rect x="174.286" y="429.715" width="19.2251" height="54.9288" rx="9.61254" fill="#6667AB"/>
<rect x="141.329" y="443.447" width="19.2251" height="41.1966" rx="9.61254" fill="#6667AB"/>
<rect x="108.372" y="347.322" width="19.2251" height="137.322" rx="9.61254" fill="#6667AB"/>
<rect x="75.4146" y="429.715" width="19.2251" height="54.9288" rx="9.61254" fill="#6667AB"/>
<rect x="42.4572" y="388.518" width="19.2251" height="96.1253" rx="9.61254" fill="#6667AB"/>
<path d="M9.5 453.06C9.5 447.751 13.8037 443.447 19.1125 443.447V443.447C24.4214 443.447 28.7251 447.751 28.7251 453.06V475.031C28.7251 480.34 24.4214 484.644 19.1125 484.644V484.644C13.8037 484.644 9.5 480.34 9.5 475.031V453.06Z" fill="#6667AB"/>
<circle cx="249.813" cy="215.493" r="2.74644" fill="white"/>
<path d="M241.5 209H258.833L258.833 200.512L253.778 195.561L251.611 193.439C247.278 189.195 253.056 184.951 255.944 187.781L260.278 192.024L270.389 201.927L280.5 192.024L244.389 156.659L238.611 151L228.5 160.902L245.833 177.878L241.5 182.122V209Z" fill="#6667AB"/>
<path d="M308.963 216.26L202.231 127.825L238.825 91.2311L327.26 197.963L308.963 216.26Z" fill="#6667AB"/>
<path d="M228.872 69.4693C229.653 68.6882 230.924 68.6848 231.661 69.5077C237.593 76.133 240.897 84.7315 240.897 93.6707C240.897 103.278 237.08 112.493 230.286 119.286C223.493 126.08 214.278 129.897 204.671 129.897C195.732 129.897 187.133 126.593 180.508 120.661C179.685 119.924 179.688 118.653 180.469 117.872L204.671 93.6707L228.872 69.4693Z" fill="#6667AB"/>
<path d="M178.03 115.433C177.249 116.214 175.978 116.217 175.241 115.394C169.309 108.769 166.005 100.17 166.005 91.2311C166.005 81.6234 169.822 72.4092 176.616 65.6156C183.409 58.8219 192.623 55.0052 202.231 55.0052C211.17 55.0052 219.769 58.3092 226.394 64.2409C227.217 64.9777 227.214 66.2487 226.433 67.0298L202.231 91.2311L178.03 115.433Z" fill="#6667AB"/>
</svg>
