<svg width="1120" height="1120" viewBox="0 0 1120 1120" fill="none" xmlns="http://www.w3.org/2000/svg">
<path d="M317.5 644C313.5 644 304.833 637.5 302.5 634.5V661.5L265 659V591.5H259H256L253.5 592L250.5 592.5L246 593.5L242.5 594.5L238 596L233 598.5L229 600.5L224 604L221 606.5L218.5 609L216 611.5L214 614L212 617L210 620.5L208.5 623.5L207 626.5L206 628.5L205 632V633.5V641V652L206.5 658L208.5 662.5L211 668L213.5 672L215.5 676.5L217.5 681L219 685L219.5 689V695.5L219 700.5L218 704L216.5 708L214 711.5L211 715L208 718.5L205 722L202.5 725L200 728L197 732L195 735L193 738L191 741.5L189 746L188 748.5L186 753L184.5 757.5L182.5 763L181 769L180 776.5V786.5L181 791L182 796L183 800L184 803L185 806L186.5 810L188.5 814L190 817L192.5 820L195 823L198.5 827L202 830L207 834L211 837L216 840L221 843L225 845L230 847L236 849L239 850L243 851L247 852L252 853L258.5 854L266 855H296.5L303 854.5L308 853.5L315 852L325 850L332 848L337 846L344 843.5L351 839.5L357.5 835L365 829L371.5 821.5L375 817L378.5 810.5L382.5 801.5L384 796L384.5 778L382.5 763L377 748.5L368.5 733.5L363.5 727.5L354 715L349 707C348 705.5 346 702.2 346 701V696V685.5L351.5 673L356 664.5L359 659C359.333 658.5 360.1 657 360.5 655C360.9 653 361 651.5 361 651V645.5C361 645.167 360.8 643.4 360 639C359.5 636 358 634 356.5 632C355.3 630.4 353.667 630 353 630H347C346.2 630 345 630.667 344.5 631C340.167 634.5 331.2 641.7 330 642.5C328.8 643.3 325.833 643.833 324.5 644H317.5Z" fill="#E1634B" stroke="black"/>
<path d="M256.5 253V351.347C256.5 351.771 256.635 352.185 256.885 352.527L265.401 364.18C265.777 364.695 266.377 365 267.016 365H301.044C301.649 365 302.221 364.727 302.6 364.257L312.056 352.55C312.343 352.194 312.5 351.751 312.5 351.293V253C312.5 251.895 311.605 251 310.5 251H258.5C257.395 251 256.5 251.895 256.5 253Z" fill="#E1634B"/>
<path d="M246 304.5V302.5V298.5L249 296H252L254 297L256.5 300V302.5V304.5V307L254 310L252 311H249L246 308.5V304.5Z" fill="#160F0D"/>
<path d="M246 272V270V266L249 263.5H252L254 264.5L256.5 267.5V270V272V274.5L254 277.5L252 278.5H249L246 276V272Z" fill="#160F0D"/>
<path d="M323 304.5V302.5V298.5L320 296H317L315 297L312.5 300V302.5V304.5V307L315 310L317 311H320L323 308.5V304.5Z" fill="#160F0D"/>
<path d="M323 272V270V266L320 263.5H317L315 264.5L312.5 267.5V270V272V274.5L315 277.5L317 278.5H320L323 276V272Z" fill="#160F0D"/>
<path d="M246 331.5V329.5V325.5L249 323H252L254 324L256.5 327V329.5V331.5V334L254 337L252 338H249L246 335.5V331.5Z" fill="#160F0D"/>
<path d="M323 331.5V329.5V325.5L320 323H317L315 324L312.5 327V329.5V331.5V334L315 337L317 338H320L323 335.5V331.5Z" fill="#160F0D"/>
<circle cx="268.5" cy="303.5" r="5" fill="#160F0D"/>
<circle cx="268.5" cy="271" r="5" fill="#160F0D"/>
<circle cx="5" cy="5" r="5" transform="matrix(-1 0 0 1 305.5 298.5)" fill="#160F0D"/>
<circle cx="5" cy="5" r="5" transform="matrix(-1 0 0 1 305.5 266)" fill="#160F0D"/>
<circle cx="268.5" cy="330.5" r="5" fill="#160F0D"/>
<circle cx="5" cy="5" r="5" transform="matrix(-1 0 0 1 305.5 325.5)" fill="#160F0D"/>
<rect x="249.5" y="767.5" width="68" height="14" fill="white" stroke="black" stroke-width="6"/>
<circle cx="282.5" cy="690.5" r="33" fill="white" stroke="black" stroke-width="8"/>
<path d="M265 775V367L265.5 366L266 365H270V775H265Z" fill="#160F0D" stroke="black" stroke-width="1.5"/>
<path d="M275.5 775V367L276 366L276.5 365H280.5V775H275.5Z" fill="#160F0D" stroke="black" stroke-width="1.5"/>
<path d="M286.5 775V367L287 366L287.5 365H291.5V775H286.5Z" fill="#160F0D" stroke="black" stroke-width="1.5"/>
<path d="M297.5 775V367L298 366L298.5 365H302.5V775H297.5Z" fill="#160F0D" stroke="black" stroke-width="1.5"/>
<path d="M488.5 513C483.414 521.873 480.5 492.5 412.5 454.5C359.015 424.611 337.306 421.179 328.5 420.598C326.661 420.477 325.385 420.48 324.5 420.393C322.609 420.206 322.5 419.606 322.5 416.5C327.586 407.627 370.5 420 417.105 447.17C466 475.675 493.586 504.127 488.5 513Z" fill="#160F0D"/>
<path d="M481 513.5C477.014 520.302 440.209 504.706 397.21 479.51C354.212 454.313 323.014 429.302 327 422.5C330.986 415.698 369.5 430 413 454.5C455 481 484.986 506.698 481 513.5Z" fill="#F0B158"/>
<path d="M402.961 458.568L392.69 470.765L358.444 510.978L358.992 513.468L361.029 515.43L363.048 516.392L406.602 466.001C407.253 465.155 408.551 463.263 408.535 462.464C408.516 461.464 408.479 459.464 406.46 458.502C404.845 457.732 403.454 458.226 402.961 458.568Z" fill="black" stroke="black"/>
<path d="M424.5 432.942L414 444.942L412.5 446.942L419.5 450.442L428 440.442C428.667 439.608 430 437.742 430 436.942C430 435.942 430 433.942 428 432.942C426.4 432.142 425 432.608 424.5 432.942Z" fill="black" stroke="black"/>
<path d="M700.955 466.649L709.869 479.87L743.51 530.765L746.055 530.922L748.5 529.5L749.978 527.822L709.101 465.185C708.466 464.327 707.002 462.56 706.229 462.356C705.262 462.1 703.329 461.588 701.85 463.266C700.668 464.608 700.761 466.081 700.955 466.649Z" fill="black" stroke="black"/>
<path d="M682.214 438.91L690.876 452.298L692 454L699 450L690.386 437.6C689.768 436.731 688.338 434.937 687.569 434.718C686.607 434.443 684.683 433.895 683.173 435.544C681.966 436.864 682.031 438.338 682.214 438.91Z" fill="black" stroke="black"/>
<path d="M795.46 427.17C799.773 436.443 774.099 421.879 703.833 455.505C648.566 481.952 633.24 497.706 627.685 504.564C626.526 505.996 625.792 507.04 625.21 507.712C623.966 509.149 623.413 508.892 620.876 507.101C616.563 497.828 651.424 469.911 700.502 447.515C751.991 424.018 791.146 417.897 795.46 427.17Z" fill="#160F0D"/>
<path d="M791.542 433.585C794.799 440.764 760.828 461.833 715.442 482.421C670.057 503.009 631.63 514.066 628.373 506.886C625.116 499.706 659.016 476.496 704.122 455.096C749.996 436.075 788.285 426.405 791.542 433.585Z" fill="#F0B158"/>
<rect x="718" y="673" width="182" height="6" transform="rotate(-90 718 673)" fill="black" stroke="black"/>
<path d="M722.5 580.5C736.957 580.5 750.107 579.656 759.698 578.273C764.471 577.584 768.491 576.745 771.382 575.759C772.808 575.273 774.139 574.692 775.172 573.964C776.101 573.309 777.5 572.021 777.5 570C777.5 567.979 776.101 566.691 775.172 566.036C774.139 565.308 772.808 564.727 771.382 564.241C768.491 563.255 764.471 562.416 759.698 561.727C750.107 560.344 736.957 559.5 722.5 559.5C708.043 559.5 694.893 560.344 685.302 561.727C680.529 562.416 676.509 563.255 673.618 564.241C672.192 564.727 670.861 565.308 669.828 566.036C668.899 566.691 667.5 567.979 667.5 570C667.5 572.021 668.899 573.309 669.828 573.964C670.861 574.692 672.192 575.273 673.618 575.759C676.509 576.745 680.529 577.584 685.302 578.273C694.893 579.656 708.043 580.5 722.5 580.5Z" fill="#F0B158" stroke="black" stroke-width="6"/>
<rect x="2.53108" y="2.46071" width="101.46" height="39.0384" transform="matrix(0.999878 -0.0156359 0.0125531 0.999921 574.469 609.169)" stroke="black" stroke-width="5"/>
<rect x="411" y="853" width="145" height="6" transform="rotate(-90 411 853)" fill="black" stroke="black"/>
<rect x="384.5" y="486.5" width="5" height="223" fill="black"/>
<rect x="388" y="580" width="135" height="19" fill="#D9D9D9" stroke="black" stroke-width="5"/>
<rect x="388" y="604" width="135" height="103" fill="#F0B158" stroke="black" stroke-width="5"/>
<rect x="2.53108" y="2.46071" width="99.2239" height="17.6969" transform="matrix(0.999878 -0.0156359 0.0125531 0.999921 565.469 526.169)" stroke="black" stroke-width="5"/>
<rect x="2.53108" y="2.46071" width="99.2239" height="66.8215" transform="matrix(0.999878 -0.0156359 0.0125531 0.999921 565.734 547.282)" fill="#F0B158" stroke="black" stroke-width="5"/>
<rect x="544" y="577" width="25" height="6" rx="1.5" fill="black" stroke="black"/>
<rect x="544" y="640" width="59" height="6" rx="1.5" transform="rotate(-90 544 640)" fill="black" stroke="black"/>
<rect x="474.176" y="823.456" width="37.4921" height="6" rx="1.5" transform="rotate(126 474.176 823.456)" fill="black" stroke="black"/>
<rect x="0.698401" y="0.110616" width="37.4921" height="6" rx="1.5" transform="matrix(0.587785 0.809017 0.809017 -0.587785 620.698 823.225)" fill="black" stroke="black"/>
<circle cx="547" cy="746" r="105.5" fill="#D9D9D9" stroke="black" stroke-width="6"/>
<rect x="700" y="743" width="243" height="108" fill="white" stroke="black" stroke-width="5"/>
<rect x="700" y="672" width="243" height="68" fill="#E05C44" stroke="black" stroke-width="5"/>
<circle cx="724.5" cy="704.5" r="10" fill="#160F0D"/>
<circle cx="756.5" cy="704.5" r="10" fill="#160F0D"/>
<circle cx="886.5" cy="696.5" r="4" fill="#160F0D"/>
<circle cx="906.5" cy="696.5" r="4" fill="#160F0D"/>
<circle cx="906.5" cy="712.5" r="4" fill="#160F0D"/>
<circle cx="926.5" cy="712.5" r="4" fill="#160F0D"/>
<circle cx="926.5" cy="696.5" r="4" fill="#160F0D"/>
<circle cx="886.5" cy="712.5" r="4" fill="#160F0D"/>
<rect x="783" y="689" width="79" height="33" fill="white" stroke="#160F0D" stroke-width="5"/>
<rect x="806.5" y="702.5" width="31" height="5" rx="2" fill="black"/>
<path d="M722.5 743.5C722.5 742.395 723.395 741.5 724.5 741.5H741.5C742.605 741.5 743.5 742.395 743.5 743.5V800.5C743.5 801.605 742.605 802.5 741.5 802.5H724.5C723.395 802.5 722.5 801.605 722.5 800.5V743.5Z" fill="#160F0D"/>
<path d="M729.5 802.5C729.5 801.395 730.395 800.5 731.5 800.5H735.5C736.605 800.5 737.5 801.395 737.5 802.5V848.5C737.5 849.605 736.605 850.5 735.5 850.5H731.5C730.395 850.5 729.5 849.605 729.5 848.5V802.5Z" fill="#160F0D"/>
<path d="M757.5 743.5C757.5 742.395 758.395 741.5 759.5 741.5H776.5C777.605 741.5 778.5 742.395 778.5 743.5V800.5C778.5 801.605 777.605 802.5 776.5 802.5H759.5C758.395 802.5 757.5 801.605 757.5 800.5V743.5Z" fill="#160F0D"/>
<path d="M764.5 802.5C764.5 801.395 765.395 800.5 766.5 800.5H770.5C771.605 800.5 772.5 801.395 772.5 802.5V848.5C772.5 849.605 771.605 850.5 770.5 850.5H766.5C765.395 850.5 764.5 849.605 764.5 848.5V802.5Z" fill="#160F0D"/>
<path d="M828.5 743.5C828.5 742.395 829.395 741.5 830.5 741.5H847.5C848.605 741.5 849.5 742.395 849.5 743.5V800.5C849.5 801.605 848.605 802.5 847.5 802.5H830.5C829.395 802.5 828.5 801.605 828.5 800.5V743.5Z" fill="#160F0D"/>
<path d="M835.5 802.5C835.5 801.395 836.395 800.5 837.5 800.5H841.5C842.605 800.5 843.5 801.395 843.5 802.5V848.5C843.5 849.605 842.605 850.5 841.5 850.5H837.5C836.395 850.5 835.5 849.605 835.5 848.5V802.5Z" fill="#160F0D"/>
<path d="M863.5 743.5C863.5 742.395 864.395 741.5 865.5 741.5H882.5C883.605 741.5 884.5 742.395 884.5 743.5V800.5C884.5 801.605 883.605 802.5 882.5 802.5H865.5C864.395 802.5 863.5 801.605 863.5 800.5V743.5Z" fill="#160F0D"/>
<path d="M870.5 802.5C870.5 801.395 871.395 800.5 872.5 800.5H876.5C877.605 800.5 878.5 801.395 878.5 802.5V848.5C878.5 849.605 877.605 850.5 876.5 850.5H872.5C871.395 850.5 870.5 849.605 870.5 848.5V802.5Z" fill="#160F0D"/>
<path d="M898.5 743.5C898.5 742.395 899.395 741.5 900.5 741.5H917.5C918.605 741.5 919.5 742.395 919.5 743.5V800.5C919.5 801.605 918.605 802.5 917.5 802.5H900.5C899.395 802.5 898.5 801.605 898.5 800.5V743.5Z" fill="#160F0D"/>
<path d="M905.5 802.5C905.5 801.395 906.395 800.5 907.5 800.5H911.5C912.605 800.5 913.5 801.395 913.5 802.5V848.5C913.5 849.605 912.605 850.5 911.5 850.5H907.5C906.395 850.5 905.5 849.605 905.5 848.5V802.5Z" fill="#160F0D"/>
<rect x="800" y="850" width="108" height="6" transform="rotate(-90 800 850)" fill="black" stroke="black"/>
<rect x="840" y="672" width="145" height="6" transform="rotate(-90 840 672)" fill="black" stroke="black"/>
<path d="M794 478C794 490.996 799.162 503.459 808.352 512.648C817.541 521.838 830.004 527 843 527C855.996 527 868.459 521.838 877.648 512.648C886.838 503.459 892 490.996 892 478" stroke="black" stroke-width="5"/>
<mask id="path-63-outside-1_21_7" maskUnits="userSpaceOnUse" x="808.5" y="402.5" width="70" height="41" fill="black">
<rect fill="white" x="808.5" y="402.5" width="70" height="41"/>
<path d="M872.5 437.5C872.5 433.692 871.75 429.921 870.293 426.402C868.835 422.884 866.699 419.687 864.006 416.994C861.313 414.301 858.116 412.165 854.598 410.707C851.079 409.25 847.308 408.5 843.5 408.5C839.692 408.5 835.921 409.25 832.402 410.707C828.884 412.165 825.687 414.301 822.994 416.994C820.301 419.687 818.165 422.884 816.707 426.402C815.25 429.921 814.5 433.692 814.5 437.5L843.5 437.5H872.5Z"/>
</mask>
<path d="M872.5 437.5C872.5 433.692 871.75 429.921 870.293 426.402C868.835 422.884 866.699 419.687 864.006 416.994C861.313 414.301 858.116 412.165 854.598 410.707C851.079 409.25 847.308 408.5 843.5 408.5C839.692 408.5 835.921 409.25 832.402 410.707C828.884 412.165 825.687 414.301 822.994 416.994C820.301 419.687 818.165 422.884 816.707 426.402C815.25 429.921 814.5 433.692 814.5 437.5L843.5 437.5H872.5Z" fill="#E1634B"/>
<path d="M872.5 437.5C872.5 433.692 871.75 429.921 870.293 426.402C868.835 422.884 866.699 419.687 864.006 416.994C861.313 414.301 858.116 412.165 854.598 410.707C851.079 409.25 847.308 408.5 843.5 408.5C839.692 408.5 835.921 409.25 832.402 410.707C828.884 412.165 825.687 414.301 822.994 416.994C820.301 419.687 818.165 422.884 816.707 426.402C815.25 429.921 814.5 433.692 814.5 437.5L843.5 437.5H872.5Z" stroke="black" stroke-width="12" mask="url(#path-63-outside-1_21_7)"/>
<mask id="path-64-outside-2_21_7" maskUnits="userSpaceOnUse" x="808.5" y="475.5" width="70" height="41" fill="black">
<rect fill="white" x="808.5" y="475.5" width="70" height="41"/>
<path d="M814.5 481.5C814.5 485.308 815.25 489.079 816.707 492.598C818.165 496.116 820.301 499.313 822.994 502.006C825.687 504.699 828.884 506.835 832.402 508.293C835.921 509.75 839.692 510.5 843.5 510.5C847.308 510.5 851.079 509.75 854.598 508.293C858.116 506.835 861.313 504.699 864.006 502.006C866.699 499.313 868.835 496.116 870.293 492.598C871.75 489.079 872.5 485.308 872.5 481.5L843.5 481.5H814.5Z"/>
</mask>
<path d="M814.5 481.5C814.5 485.308 815.25 489.079 816.707 492.598C818.165 496.116 820.301 499.313 822.994 502.006C825.687 504.699 828.884 506.835 832.402 508.293C835.921 509.75 839.692 510.5 843.5 510.5C847.308 510.5 851.079 509.75 854.598 508.293C858.116 506.835 861.313 504.699 864.006 502.006C866.699 499.313 868.835 496.116 870.293 492.598C871.75 489.079 872.5 485.308 872.5 481.5L843.5 481.5H814.5Z" fill="#E1634B"/>
<path d="M814.5 481.5C814.5 485.308 815.25 489.079 816.707 492.598C818.165 496.116 820.301 499.313 822.994 502.006C825.687 504.699 828.884 506.835 832.402 508.293C835.921 509.75 839.692 510.5 843.5 510.5C847.308 510.5 851.079 509.75 854.598 508.293C858.116 506.835 861.313 504.699 864.006 502.006C866.699 499.313 868.835 496.116 870.293 492.598C871.75 489.079 872.5 485.308 872.5 481.5L843.5 481.5H814.5Z" stroke="black" stroke-width="12" mask="url(#path-64-outside-2_21_7)"/>
<mask id="path-65-outside-3_21_7" maskUnits="userSpaceOnUse" x="808.5" y="436.5" width="70" height="46" fill="black">
<rect fill="white" x="808.5" y="436.5" width="70" height="46"/>
<path d="M814.5 436.5H872.5V482.5H814.5V436.5Z"/>
</mask>
<path d="M814.5 436.5H872.5V482.5H814.5V436.5Z" fill="#E1634B"/>
<path d="M866.5 436.5V482.5H878.5V436.5H866.5ZM820.5 482.5V436.5H808.5V482.5H820.5Z" fill="black" mask="url(#path-65-outside-3_21_7)"/>
<rect x="811.5" y="454.5" width="8" height="26" rx="3" transform="rotate(-90 811.5 454.5)" fill="#160F0D"/>
<rect x="849.5" y="454.5" width="8" height="26" rx="3" transform="rotate(-90 849.5 454.5)" fill="#160F0D"/>
<rect x="811.5" y="438.5" width="8" height="26" rx="3" transform="rotate(-90 811.5 438.5)" fill="#160F0D"/>
<rect x="849.5" y="438.5" width="8" height="26" rx="3" transform="rotate(-90 849.5 438.5)" fill="#160F0D"/>
<rect x="811.5" y="470.5" width="8" height="26" rx="3" transform="rotate(-90 811.5 470.5)" fill="#160F0D"/>
<rect x="849.5" y="470.5" width="8" height="26" rx="3" transform="rotate(-90 849.5 470.5)" fill="#160F0D"/>
<rect x="811.5" y="486.5" width="8" height="26" rx="3" transform="rotate(-90 811.5 486.5)" fill="#160F0D"/>
<rect x="849.5" y="486.5" width="8" height="26" rx="3" transform="rotate(-90 849.5 486.5)" fill="#160F0D"/>
</svg>
